HIERARCHY
ROOT Hips
{
	OFFSET 0.00000 0.00000 0.00000
	CHANNELS 6 Xposition Yposition Zposition Zrotation Yrotation Xrotation 
	JOINT LHipJoint
	{
		OFFSET 0 0 0
		CHANNELS 3 Zrotation Yrotation Xrotation
		JOINT LeftUpLeg
		{
			OFFSET 1.39187 -1.60231 0.69152
			CHANNELS 3 Zrotation Yrotation Xrotation
			JOINT LeftLeg
			{
				OFFSET 2.43314 -6.68499 0.00000
				CHANNELS 3 Zrotation Yrotation Xrotation
				JOINT LeftFoot
				{
					OFFSET 2.32059 -6.37578 0.00000
					CHANNELS 3 Zrotation Yrotation Xrotation
					JOINT LeftToeBase
					{
						OFFSET 0.23021 -0.63250 1.71305
						CHANNELS 3 Zrotation Yrotation Xrotation
						End Site
						{
							OFFSET 0.00000 -0.00000 0.91647
						}
					}
				}
			}
		}
	}
	JOINT RHipJoint
	{
		OFFSET 0 0 0
		CHANNELS 3 Zrotation Yrotation Xrotation
		JOINT RightUpLeg
		{
			OFFSET -1.19407 -1.60231 0.69152
			CHANNELS 3 Zrotation Yrotation Xrotation
			JOINT RightLeg
			{
				OFFSET -2.44411 -6.71513 0.00000
				CHANNELS 3 Zrotation Yrotation Xrotation
				JOINT RightFoot
				{
					OFFSET -2.31924 -6.37207 0.00000
					CHANNELS 3 Zrotation Yrotation Xrotation
					JOINT RightToeBase
					{
						OFFSET -0.19473 -0.53502 1.87724
						CHANNELS 3 Zrotation Yrotation Xrotation
						End Site
						{
							OFFSET -0.00000 -0.00000 0.98293
						}
					}
				}
			}
		}
	}
	JOINT LowerBack
	{
		OFFSET 0 0 0
		CHANNELS 3 Zrotation Yrotation Xrotation
		JOINT Spine
		{
			OFFSET -0.01120 1.87307 0.09613
			CHANNELS 3 Zrotation Yrotation Xrotation
			JOINT Spine1
			{
				OFFSET 0.01099 1.87818 0.04834
				CHANNELS 3 Zrotation Yrotation Xrotation
				JOINT Neck
				{
					OFFSET 0 0 0
					CHANNELS 3 Zrotation Yrotation Xrotation
					JOINT Neck1
					{
						OFFSET 0.01702 1.40324 -0.12579
						CHANNELS 3 Zrotation Yrotation Xrotation
						JOINT Head
						{
							OFFSET -0.04239 1.38587 -0.01614
							CHANNELS 3 Zrotation Yrotation Xrotation
							End Site
							{
								OFFSET -0.02510 1.47031 -0.00154
							}
						}
					}
				}
				JOINT LeftShoulder
				{
					OFFSET 0 0 0
					CHANNELS 3 Zrotation Yrotation Xrotation
					JOINT LeftArm
					{
						OFFSET 2.95699 0.62343 0.11653
						CHANNELS 3 Zrotation Yrotation Xrotation
						JOINT LeftForeArm
						{
							OFFSET 4.68382 -0.00000 -0.00000
							CHANNELS 3 Zrotation Yrotation Xrotation
							JOINT LeftHand
							{
								OFFSET 2.98124 -0.00000 -0.00000
								CHANNELS 3 Zrotation Yrotation Xrotation
								JOINT LeftFingerBase
								{
									OFFSET 0 0 0
									CHANNELS 3 Zrotation Yrotation Xrotation
									JOINT LeftHandIndex1
									{
										OFFSET 0.70759 -0.00000 0.00000
										CHANNELS 3 Zrotation Yrotation Xrotation
										End Site
										{
											OFFSET 0.57048 -0.00000 0.00000
										}
									}
								}
								JOINT LThumb
								{
									OFFSET 0 0 0
									CHANNELS 3 Zrotation Yrotation Xrotation
									End Site
									{
										OFFSET 0.57919 -0.00000 0.57919
									}
								}
							}
						}
					}
				}
				JOINT RightShoulder
				{
					OFFSET 0 0 0
					CHANNELS 3 Zrotation Yrotation Xrotation
					JOINT RightArm
					{
						OFFSET -2.99027 0.88714 -0.02793
						CHANNELS 3 Zrotation Yrotation Xrotation
						JOINT RightForeArm
						{
							OFFSET -4.75876 -0.00000 -0.00000
							CHANNELS 3 Zrotation Yrotation Xrotation
							JOINT RightHand
							{
								OFFSET -2.93293 -0.00000 -0.00000
								CHANNELS 3 Zrotation Yrotation Xrotation
								JOINT RightFingerBase
								{
									OFFSET 0 0 0
									CHANNELS 3 Zrotation Yrotation Xrotation
									JOINT RightHandIndex1
									{
										OFFSET -0.83175 -0.00000 0.00000
										CHANNELS 3 Zrotation Yrotation Xrotation
										End Site
										{
											OFFSET -0.67058 -0.00000 0.00000
										}
									}
								}
								JOINT RThumb
								{
									OFFSET 0 0 0
									CHANNELS 3 Zrotation Yrotation Xrotation
									End Site
									{
										OFFSET -0.68082 -0.00000 0.68082
									}
								}
							}
						}
					}
				}
			}
		}
	}
}
MOTION
Frames: 14
Frame Time: .0083333
26.1581 12.4125 -0.8826 -409.3200 -89.0146 105.6450 0.0000 0.0000 0.0000 -22.1859 -10.1922 -3.1279 0.5116 4.5846 12.7276 1.2628 -1.2854 21.7346 0.2959 3.4977 9.6675 0.0000 0.0000 0.0000 5.5480 28.6060 -90.9276 -24.3173 -19.5471 102.7150 -2.3212 -0.4128 -29.0054 -1.3489 7.3527 -20.7645 -1.6773 -3.0341 0.5239 1.3946 -4.0493 1.3892 2.3333 -2.0507 1.3486 -9.4321 3.4252 -15.1263 11.8120 4.9271 10.5699 5.7055 2.8797 5.0952 -0.0000 0.0000 0.0000 -55.5739 -35.8411 43.0974 43.1913 -49.8510 -20.8469 -0.0000 -0.0000 14.8648 83.7737 29.9001 77.6549 -7.1250 0.0000 -0.0000 117.4190 -65.2604 -143.3202 -0.0000 0.0000 0.0000 75.6721 39.4092 62.7161 -40.1714 48.1711 -18.5668 0.0000 0.0000 15.0643 -90.0898 -44.6258 90.1279 7.1250 -0.0000 -0.0000 -23.9504 57.1515 -33.5100
26.0866 12.3999 -0.8899 -413.7770 -89.1827 110.1990 0.0000 0.0000 0.0000 -22.3762 -10.0951 -2.8848 0.4842 4.4620 12.3803 1.4252 -0.5832 22.7932 0.4052 4.0866 11.3204 0.0000 0.0000 0.0000 5.4833 28.5749 -90.7182 -24.3226 -19.5460 102.7309 -2.3240 0.0405 -28.8754 -1.2655 7.1307 -20.1030 -2.0417 -3.0472 0.3709 1.4096 -4.0639 1.3420 2.5437 -2.0628 1.4136 -9.3530 3.4405 -15.1304 11.7007 4.9415 10.6464 5.6601 2.8820 5.1229 -0.0000 -0.0000 0.0000 -56.0038 -35.6043 43.0332 43.1476 -49.8280 -20.8134 -0.0000 -0.0000 15.1724 84.0435 29.9797 78.2059 -7.1250 0.0000 -0.0000 118.3897 -65.0430 -144.3631 -0.0000 -0.0000 0.0000 75.9485 38.9936 62.8042 -40.1004 48.1292 -18.5139 0.0000 0.0000 15.4538 -90.4242 -44.6099 90.6040 7.1250 -0.0000 -0.0000 -24.1818 57.4570 -33.7895
26.0104 12.4033 -0.8948 -404.0080 -89.2723 100.3620 0.0000 0.0000 0.0000 -22.4598 -10.0287 -2.7263 0.4719 4.4060 12.2218 1.6181 -0.0018 24.0773 0.5654 4.8161 13.3847 0.0000 0.0000 0.0000 5.6461 28.4079 -90.1439 -24.2981 -19.5512 102.6579 -2.3129 0.0362 -28.8072 -1.2912 7.1998 -20.3087 -2.1767 -3.0560 0.3536 1.3937 -4.0749 1.3637 2.6005 -2.0706 1.4547 -9.4102 3.3923 -14.9056 11.8144 4.8637 10.5135 5.6889 2.8441 5.0486 -0.0000 0.0000 0.0000 -56.1179 -35.6951 43.2847 42.9661 -49.7323 -20.6749 -0.0000 -0.0000 15.0132 83.9664 29.9427 78.0437 -7.1250 0.0000 -0.0000 118.0800 -65.1042 -144.0425 -0.0000 0.0000 0.0000 75.7885 38.8697 62.7984 -40.1467 48.1566 -18.5485 0.0000 0.0000 15.0287 -91.0401 -44.5345 91.4829 7.1250 -0.0000 -0.0000 -24.6673 58.0074 -34.3856
25.9318 12.4132 -0.9001 -396.3030 -89.1320 92.6173 0.0000 0.0000 0.0000 -22.3172 -9.9135 -2.8227 0.4847 4.4641 12.3861 1.7695 0.2475 25.1037 0.5619 4.8012 13.3424 0.0000 0.0000 0.0000 6.0427 28.3245 -89.4937 -24.2397 -19.5635 102.4833 -2.3061 -0.0538 -28.7934 -1.3627 7.3888 -20.8723 -2.1452 -3.0183 0.3871 1.4518 -4.0262 1.4129 2.6436 -2.0474 1.4856 -9.4665 3.3007 -15.0107 11.9466 4.7410 10.5190 5.7373 2.7937 5.0772 -0.0000 -0.0000 0.0000 -56.2367 -35.9001 43.5991 42.7320 -49.6078 -20.4964 -0.0000 -0.0000 14.9007 84.1677 29.7236 78.3590 -7.1250 0.0000 -0.0000 118.1388 -64.9104 -144.3395 -0.0000 -0.0000 0.0000 75.2575 39.0733 62.6139 -40.1254 48.1440 -18.5326 0.0000 0.0000 14.0985 -91.5551 -44.5522 92.2161 7.1250 -0.0000 -0.0000 -24.9884 58.4903 -34.7533
25.8479 12.4238 -0.9062 -393.8960 -89.0039 90.2287 0.0000 0.0000 0.0000 -22.2131 -9.6727 -3.1253 0.5013 4.5390 12.5981 1.9066 0.2439 26.0687 0.4418 4.2650 11.8233 0.0000 0.0000 0.0000 6.4068 28.2562 -88.9322 -24.1592 -19.5801 102.2430 -2.3145 0.0447 -28.8142 -1.4315 7.5652 -21.4009 -2.0620 -3.0855 0.4089 1.4875 -4.1164 1.3906 2.6345 -2.0909 1.4528 -9.4458 3.3405 -15.2346 11.9241 4.7963 10.7270 5.7451 2.8250 5.1734 -0.0000 0.0000 0.0000 -56.2860 -35.6803 43.5177 42.6123 -49.5436 -20.4053 -0.0000 -0.0000 14.9992 84.4961 29.6384 78.9741 -7.1250 0.0000 -0.0000 118.8852 -64.6190 -145.2949 -0.0000 0.0000 0.0000 75.9375 38.4815 63.0261 -39.5958 47.8286 -18.1391 0.0000 0.0000 15.4620 -91.0189 -44.6850 91.4488 7.1250 -0.0000 -0.0000 -24.4815 58.0287 -34.1171
25.7627 12.4318 -0.9108 -392.4900 -88.9287 88.9121 0.0000 0.0000 0.0000 -22.1460 -9.4938 -3.4729 0.5169 4.6079 12.7936 2.0749 0.6558 27.0806 0.3806 3.9619 10.9696 0.0000 0.0000 0.0000 6.6896 28.1412 -88.4692 -24.0761 -19.5969 101.9953 -2.3203 0.3263 -28.7629 -1.4259 7.5510 -21.3585 -2.0833 -3.0732 0.2721 1.5071 -4.0982 1.3993 2.6583 -2.0834 1.5402 -9.2866 3.2900 -15.4740 11.8531 4.7075 10.9158 5.7049 2.7882 5.2881 0.0000 0.0000 0.0000 -56.3245 -35.7288 43.6449 42.5378 -49.5036 -20.3486 -0.0000 -0.0000 14.9138 84.2808 29.7056 78.5741 -7.1250 0.0000 -0.0000 118.4228 -64.8120 -144.6880 0.0000 0.0000 0.0000 75.5303 38.9086 63.3481 -39.2167 47.5989 -17.8587 0.0000 0.0000 13.9239 -89.9142 45.2697 -89.8792 7.1250 -0.0000 -0.0000 -23.1282 57.1763 -32.3306
25.6842 12.4378 -0.9123 -386.9850 -88.8211 83.4165 0.0000 0.0000 0.0000 -22.0236 -9.4484 -3.6952 0.5472 4.7392 13.1661 2.1964 0.6362 27.8811 0.3015 3.5305 9.7593 0.0000 0.0000 0.0000 7.0272 27.9208 -87.9384 -24.0023 -19.6115 101.7750 -2.3279 0.7284 -28.6901 -1.3295 7.3017 -20.6124 -1.9860 -3.1194 0.1945 1.5057 -4.1591 1.4424 2.5954 -2.1139 1.6246 -9.2428 3.2969 -15.5129 11.8477 4.7108 10.9116 5.6974 2.7921 5.2942 -0.0000 0.0000 0.0000 -56.3787 -35.7376 43.7052 42.4435 -49.4528 -20.2769 -0.0000 -0.0000 14.8766 84.5590 29.9501 79.1985 -7.1250 0.0000 -0.0000 119.7829 -64.5942 -146.0113 -0.0000 0.0000 0.0000 75.9360 38.6692 63.2148 -39.0556 47.5003 -17.7398 0.0000 0.0000 15.2099 -90.8762 -44.8732 91.2418 7.1250 -0.0000 -0.0000 -24.1737 57.9472 -33.6934
25.6022 12.4537 -0.9163 -381.2860 -88.7275 77.6372 0.0000 0.0000 0.0000 -21.9350 -9.4381 -3.9520 0.5818 4.8840 13.5780 2.4026 1.1716 29.0284 0.3349 3.7191 10.2876 0.0000 0.0000 0.0000 7.3580 27.7279 -87.2578 -23.9151 -19.6285 101.5155 -2.3409 1.1730 -28.6444 -1.2483 7.0839 -19.9641 -2.0326 -3.1310 0.2063 1.5396 -4.1754 1.5148 2.6539 -2.1248 1.6995 -9.1996 3.3071 -15.3199 11.7923 4.7218 10.7212 5.6595 2.7910 5.2045 -0.0000 0.0000 0.0000 -56.6294 -35.8690 43.7846 42.1142 -49.2738 -20.0271 -0.0000 -0.0000 15.0732 85.4522 30.2105 81.0172 -7.1250 0.0000 -0.0000 122.7962 -63.8008 -149.2407 -0.0000 0.0000 0.0000 75.9182 38.6319 63.0613 -39.0224 47.4799 -17.7153 0.0000 0.0000 15.1450 -91.5749 -44.7692 92.2357 7.1250 -0.0000 -0.0000 -24.7471 58.5635 -34.3971
25.5073 12.4807 -0.9239 -380.1720 -88.6855 76.4651 0.0000 0.0000 0.0000 -21.8809 -9.3634 -4.4173 0.6101 4.9992 13.9063 2.6836 1.8848 30.5314 0.4293 4.2050 11.6543 0.0000 0.0000 0.0000 7.6896 27.6212 -86.4992 -23.7909 -19.6519 101.1458 -2.3456 1.7195 -28.5269 -1.1617 6.8425 -19.2495 -2.1691 -3.1189 0.3015 1.6001 -4.1608 1.5040 2.7983 -2.1194 1.6488 -9.3130 3.2797 -15.3201 11.9251 4.6875 10.7643 5.7207 2.7788 5.2153 0.0000 0.0000 0.0000 -56.8985 -35.9685 43.8671 41.7221 -49.0577 -19.7304 -0.0000 -0.0000 15.2120 85.7881 30.1254 81.6524 -7.1250 0.0000 -0.0000 123.5020 -63.4746 -150.1516 0.0000 0.0000 0.0000 75.7394 38.6373 62.9908 -39.1263 47.5437 -17.7919 0.0000 0.0000 14.1448 -92.4427 -44.7713 93.4662 7.1250 -0.0000 -0.0000 -25.3236 59.3648 -35.0586
25.4277 12.4884 -0.9293 -377.5480 -88.6502 73.7771 0.0000 0.0000 0.0000 -21.8407 -9.1948 -4.6824 0.6466 5.1441 14.3201 2.9038 2.2361 31.7120 0.5051 4.5561 12.6467 0.0000 0.0000 0.0000 8.0284 27.4087 -85.9029 -23.6996 -19.6686 100.8745 -2.3361 1.9639 -28.4056 -1.1400 6.7805 -19.0667 -2.2640 -3.1191 0.4632 1.6293 -4.1634 1.4553 2.8923 -2.1200 1.5173 -9.4126 3.2465 -15.4819 12.0743 4.6381 10.9999 5.7965 2.7645 5.3144 0.0000 0.0000 0.0000 -57.1286 -36.0167 44.0922 41.4361 -48.8981 -19.5146 -0.0000 -0.0000 15.1607 85.6240 29.8781 81.2668 -7.1250 0.0000 -0.0000 122.5466 -63.6135 -149.2994 0.0000 0.0000 0.0000 75.6218 38.4451 63.0192 -38.7618 47.3190 -17.5235 0.0000 0.0000 14.9562 -92.5692 -44.6291 93.6546 7.1250 -0.0000 -0.0000 -25.5828 59.4483 -35.4077
25.3629 12.4863 -0.9350 -374.3830 -88.5001 70.5834 0.0000 0.0000 0.0000 -21.6969 -8.7780 -4.8434 0.6957 5.3320 14.8580 2.9524 1.2352 32.2408 0.3554 3.8302 10.5995 0.0000 0.0000 0.0000 8.4177 27.2104 -85.3990 -23.6261 -19.6818 100.6562 -2.3277 1.8539 -28.3805 -1.3274 7.2963 -20.5962 -2.2259 -3.1551 0.5676 1.6360 -4.2130 1.4611 2.8833 -2.1437 1.4659 -9.3148 3.2594 -15.5347 12.0539 4.6374 11.0344 5.7767 2.7676 5.3371 0.0000 0.0000 0.0000 -57.2526 -36.1015 44.2769 41.0940 -48.7048 -19.2572 -0.0000 -0.0000 15.2552 85.7240 29.9300 81.4772 -7.1250 0.0000 -0.0000 122.9232 -63.5223 -149.6831 0.0000 0.0000 0.0000 75.7384 38.3837 63.1977 -38.4928 47.1511 -17.3260 0.0000 0.0000 15.2701 -92.7651 -44.6783 93.9294 7.1250 -0.0000 -0.0000 -25.6579 59.6413 -35.4741
25.2877 12.4975 -0.9452 -374.1170 -88.3641 70.3217 0.0000 0.0000 0.0000 -21.5133 -8.3484 -5.2861 0.7350 5.4770 15.2742 3.0248 0.4326 32.8689 0.2647 3.3099 9.1427 0.0000 0.0000 0.0000 8.7904 27.1585 -84.7434 -23.5301 -19.6986 100.3713 -2.3437 1.9386 -28.4592 -1.5264 7.8007 -22.1103 -2.2633 -3.1840 0.5658 1.6557 -4.2517 1.5139 2.9217 -2.1652 1.5282 -9.1239 3.2889 -15.4527 11.8822 4.6668 10.8471 5.6816 2.7759 5.2716 -0.0000 0.0000 0.0000 -57.3377 -36.1395 44.3209 40.7382 -48.5012 -18.9903 -0.0000 -0.0000 15.8731 85.7517 30.3524 81.6373 -7.1250 0.0000 -0.0000 123.8810 -63.5252 -150.3537 -0.0000 0.0000 0.0000 75.8315 38.4959 63.4566 -38.2992 47.0294 -17.1842 0.0000 0.0000 15.1214 -93.0709 -44.7252 94.3597 7.1250 -0.0000 -0.0000 -25.8108 59.9340 -35.6287
25.2045 12.5153 -0.9546 -372.2850 -88.4150 68.3315 0.0000 0.0000 0.0000 -21.4863 -8.3786 -5.8036 0.7948 5.6906 15.8892 3.2765 1.9873 33.8174 0.4954 4.5126 12.5235 0.0000 0.0000 0.0000 9.0342 27.0449 -83.8624 -23.4251 -19.7164 100.0599 -2.3788 2.2263 -28.6077 -1.4310 7.5639 -21.3970 -2.5469 -3.1625 0.7121 1.6707 -4.2260 1.5478 3.1030 -2.1566 1.5016 -9.0740 3.2701 -15.2593 11.7814 4.6387 10.7396 5.6283 2.7526 5.2131 -0.0000 0.0000 0.0000 -57.6173 -36.1088 44.2215 40.6600 -48.4561 -18.9317 -0.0000 -0.0000 15.7710 86.0315 30.2075 82.1492 -7.1250 0.0000 -0.0000 124.3042 -63.2440 -150.9990 -0.0000 0.0000 0.0000 75.7123 38.4695 63.3891 -38.2105 46.9732 -17.1193 0.0000 0.0000 15.1305 -93.4739 -44.6177 94.9398 7.1250 -0.0000 -0.0000 -26.2280 60.2825 -36.1404
25.1435 12.5098 -0.9622 -371.5800 -88.4149 67.4286 0.0000 0.0000 0.0000 -21.5086 -7.7916 -5.8731 0.8921 6.0201 16.8428 3.2414 0.4139 34.0506 0.2332 3.1078 8.5792 0.0000 0.0000 0.0000 9.2700 26.9758 -83.2265 -23.3719 -19.7252 99.9024 -2.3892 2.3377 -28.6457 -1.2689 7.1399 -20.1306 -2.6605 -3.0795 0.9000 1.6080 -4.1189 1.5054 3.1165 -2.1012 1.3483 -9.0366 3.2211 -14.8654 11.9760 4.5082 10.6923 5.6615 2.6923 5.1432 -0.0000 -0.0000 0.0000 -57.8007 -36.0994 44.6296 40.4695 -48.3456 -18.7893 -0.0000 -0.0000 15.6190 85.4970 30.0193 81.0541 -7.1250 0.0000 -0.0000 122.5070 -63.7443 -149.1051 -0.0000 -0.0000 0.0000 75.7324 38.1353 63.2093 -37.9918 46.8341 -16.9596 0.0000 0.0000 15.0024 -93.1959 -44.7394 94.5356 7.1250 -0.0000 -0.0000 -25.8799 60.0525 -35.7008
